<svg xmlns="http://www.w3.org/2000/svg" xmlns:xlink="http://www.w3.org/1999/xlink" viewBox="0 0 16.76 21.58"><defs><style>.cls-1{fill-opacity:0.5;}.cls-2{fill:url(#linear-gradient);}.cls-3{fill:#f6f7f7;}.cls-4{fill:#bfbebe;}</style><linearGradient id="linear-gradient" x1="470.38" y1="-503.38" x2="470.38" y2="-518.99" gradientTransform="matrix(1, 0, 0, -1, -462, -497.41)" gradientUnits="userSpaceOnUse"><stop offset="0" stop-color="#f3f4f5"/><stop offset="0.31" stop-color="#e6e7e8"/><stop offset="0.9" stop-color="#c5c4c4"/><stop offset="0.99" stop-color="#bfbebe"/></linearGradient></defs><title>apple_logo</title><g id="Layer_2" data-name="Layer 2"><g id="Layer_1-2" data-name="Layer 1"><path class="cls-1" d="M14,10.93A4.63,4.63,0,0,1,16.22,7a4.78,4.78,0,0,0-3.77-2c-1.6-.17-3.12.94-3.93.94S6.45,5,5.12,5A5.05,5.05,0,0,0,.86,7.6C-.95,10.75.4,15.42,2.17,18c.86,1.25,1.89,2.66,3.24,2.61s1.8-.85,3.38-.85,2,.85,3.39.82,2.3-1.27,3.15-2.53a11.25,11.25,0,0,0,1.43-2.93A4.5,4.5,0,0,1,14,10.93Z"/><path class="cls-1" d="M11.4,3.29A4.49,4.49,0,0,0,12.47,0a4.63,4.63,0,0,0-3,1.56A4.32,4.32,0,0,0,8.35,4.75,3.82,3.82,0,0,0,11.4,3.29Z"/><path class="cls-2" d="M14,11.93A4.63,4.63,0,0,1,16.22,8a4.78,4.78,0,0,0-3.77-2c-1.6-.17-3.12.94-3.93.94S6.45,6,5.12,6A5.05,5.05,0,0,0,.86,8.6C-.95,11.75.4,16.42,2.17,19c.86,1.25,1.89,2.66,3.24,2.61s1.8-.85,3.38-.85,2,.85,3.39.82,2.3-1.27,3.15-2.53a11.25,11.25,0,0,0,1.43-2.93A4.5,4.5,0,0,1,14,11.93Z"/><path class="cls-3" d="M11.4,4.29A4.49,4.49,0,0,0,12.47,1a4.63,4.63,0,0,0-3,1.56A4.32,4.32,0,0,0,8.35,5.75,3.82,3.82,0,0,0,11.4,4.29Z"/><path class="cls-4" d="M5.41,21.58c1.31,0,1.8-.84,3.38-.84s2,.84,3.39.81,2.29-1.27,3.15-2.53a10.12,10.12,0,0,0,1-1.77l-2.27,0c-1.66,0-2.31-.32-5.42-.32a31.34,31.34,0,0,0-5.23.53c-.71,0-1.47.06-2.09,0A12.82,12.82,0,0,0,2.16,19C3,20.23,4.06,21.63,5.41,21.58Z"/></g></g></svg>