<svg xmlns="http://www.w3.org/2000/svg" xmlns:xlink="http://www.w3.org/1999/xlink" viewBox="0 0 22 23"><defs><style>.cls-1{fill-opacity:0.5;}.cls-2{fill:url(#linear-gradient);}.cls-3{fill:#f6f7f7;}.cls-4{fill:#bfbebe;}.cls-5{fill:none;}</style><linearGradient id="linear-gradient" x1="473" y1="1345.99" x2="473" y2="1361.6" gradientTransform="translate(-462 -1339.3)" gradientUnits="userSpaceOnUse"><stop offset="0" stop-color="#f3f4f5"/><stop offset="0.31" stop-color="#e6e7e8"/><stop offset="0.9" stop-color="#c5c4c4"/><stop offset="0.99" stop-color="#bfbebe"/></linearGradient></defs><title>apple_logo</title><g id="Layer_2" data-name="Layer 2"><g id="Layer_1-2" data-name="Layer 1"><g id="Layer_1-2-2" data-name="Layer 1-2"><path class="cls-1" d="M16.62,11.64a4.64,4.64,0,0,1,2.22-3.93,4.79,4.79,0,0,0-3.77-2c-1.6-.17-3.12.94-3.93.94s-2.07-.94-3.4-.94a5,5,0,0,0-4.26,2.6C1.67,11.46,3,16.13,4.79,18.71,5.65,20,6.68,21.37,8,21.32s1.8-.85,3.38-.85,2,.85,3.39.82S17.1,20,18,18.76a11.06,11.06,0,0,0,1.43-2.93A4.49,4.49,0,0,1,16.62,11.64Z"/><path class="cls-1" d="M14,4A4.48,4.48,0,0,0,15.09.71a4.62,4.62,0,0,0-3,1.56A4.31,4.31,0,0,0,11,5.46,3.84,3.84,0,0,0,14,4Z"/><path class="cls-2" d="M16.62,12.64a4.64,4.64,0,0,1,2.22-3.93,4.79,4.79,0,0,0-3.77-2c-1.6-.17-3.12.94-3.93.94s-2.07-.94-3.4-.94a5,5,0,0,0-4.26,2.6C1.67,12.46,3,17.13,4.79,19.71,5.65,21,6.68,22.37,8,22.32s1.8-.85,3.38-.85,2,.85,3.39.82S17.1,21,18,19.76a11.06,11.06,0,0,0,1.43-2.93A4.49,4.49,0,0,1,16.62,12.64Z"/><path class="cls-3" d="M14,5a4.48,4.48,0,0,0,1.07-3.29,4.62,4.62,0,0,0-3,1.56A4.31,4.31,0,0,0,11,6.46,3.84,3.84,0,0,0,14,5Z"/><path class="cls-4" d="M8,22.29c1.31,0,1.8-.84,3.38-.84s2,.84,3.39.81S17.09,21,18,19.73A9.94,9.94,0,0,0,19,18H16.68c-1.66,0-2.31-.32-5.42-.32A31.65,31.65,0,0,0,6,18.17c-.71,0-1.47.06-2.09,0a12.74,12.74,0,0,0,.84,1.54C5.62,20.94,6.68,22.34,8,22.29Z"/></g><rect class="cls-5" width="22" height="23"/></g></g></svg>